# Blender v2.79 (sub 0) OBJ File: 'norm.blend'
# www.blender.org
o Плоскость
v -4.999999 0.069210 3.000000
v 4.999999 0.069210 3.000000
v -4.999999 0.069210 -3.000000
v 4.999999 0.069210 -3.000000
v -4.998401 3.100541 3.000000
v -4.998401 0.074583 3.000000
v -4.998401 3.100541 -3.000000
v -4.998401 0.074583 -3.000000
v 4.999999 3.097552 -1.253711
v 4.999999 2.018642 -1.253711
v 4.999999 3.097552 -2.999896
v 4.999999 2.018642 -2.999896
v 5.000000 2.020196 -0.354449
v 5.000000 1.147884 -0.354449
v 5.000000 2.020196 -1.272309
v 5.000000 1.147884 -1.272309
v 5.000000 2.020197 2.997266
v 5.000000 1.147885 2.997266
v 5.000000 2.020197 0.990182
v 5.000000 1.147885 0.990182
v 4.999999 3.097896 2.999058
v 4.999999 2.018985 2.999058
v 4.999999 3.097896 -1.272310
v 4.999999 2.018985 -1.272310
v 4.999999 1.149395 2.999058
v 4.999999 0.070485 2.999058
v 4.999999 1.149395 -1.272310
v 4.999999 0.070485 -1.272310
v -5.000000 0.073694 2.999970
v 5.000000 0.073694 2.999970
v -5.000000 3.101430 2.999970
v 5.000000 3.101430 2.999970
v -4.999999 0.073694 -2.998147
v 4.999999 0.073694 -2.998147
v -4.999999 3.101430 -2.998147
v 4.999999 3.101430 -2.998147
v -5.000000 3.101011 3.000000
v -5.000000 3.262095 3.000000
v -5.000000 3.101011 -3.000000
v -5.000000 3.262095 -3.000000
v 5.000000 3.101011 3.000000
v 5.000000 3.262095 3.000000
v 5.000000 3.101011 -3.000000
v 5.000000 3.262095 -3.000000
v -5.000000 3.101011 0.000000
v -5.000000 4.736357 0.000000
v 5.000000 3.101011 0.000000
v 5.000000 4.736357 0.000000
v 5.000000 3.262110 0.000000
v -5.000000 3.262088 0.000000
vt 0.231879 0.558835
vt 0.340145 0.778428
vt 0.231879 0.778428
vt 0.235607 0.226098
vt 0.343873 0.558337
vt 0.235607 0.558337
vt 0.001727 0.584012
vt 0.033215 0.702495
vt 0.001707 0.702473
vt 0.449016 0.558835
vt 0.465578 0.654612
vt 0.449016 0.654612
vt 0.033539 0.584012
vt 0.069755 0.679789
vt 0.033539 0.679789
vt 0.077126 0.584012
vt 0.154199 0.702473
vt 0.077126 0.702473
vt 0.154502 0.584012
vt 0.231576 0.702473
vt 0.154502 0.702473
vt 0.121734 0.226098
vt 0.013468 0.558532
vt 0.013468 0.226098
vt 0.231970 0.226098
vt 0.123704 0.558532
vt 0.123704 0.226098
vt 0.340145 0.558835
vt 0.343873 0.226098
vt 0.033235 0.584034
vt 0.465578 0.558835
vt 0.069755 0.584012
vt 0.154199 0.584012
vt 0.231576 0.584012
vt 0.121734 0.558532
vt 0.231970 0.558532
vt 0.527885 0.504822
vt 0.580841 0.895826
vt 0.494446 0.505937
vt 0.601584 0.842537
vt 0.914801 0.909206
vt 1.002932 0.514843
vt 0.889908 0.171942
vt 0.909164 0.118148
vt 0.574715 0.118148
vt 0.394580 0.558835
vt 0.448713 0.778428
vt 0.394580 0.778428
vt 0.698746 0.486554
vt 0.790954 0.534620
vt 0.895193 0.850509
vt 0.340448 0.558835
vt 0.340448 0.778428
vt 0.963674 0.516399
vt 0.595975 0.176764
vt 0.448713 0.558835
vn 0.0000 1.0000 0.0000
vn 1.0000 0.0000 0.0000
vn 0.0000 0.0000 1.0000
vn -1.0000 0.0000 0.0000
vn 0.0000 0.0000 -1.0000
vn 0.0000 -1.0000 0.0000
vn 0.0000 0.8975 0.4410
vn 0.0000 0.8975 -0.4410
s off
f 2/1/1 3/2/1 1/3/1
f 6/4/2 7/5/2 5/6/2
f 10/7/2 11/8/2 9/9/2
f 14/10/2 15/11/2 13/12/2
f 18/13/2 19/14/2 17/15/2
f 22/16/2 23/17/2 21/18/2
f 26/19/2 27/20/2 25/21/2
f 30/22/3 31/23/3 29/24/3
f 34/25/3 35/26/3 33/27/3
f 2/1/1 4/28/1 3/2/1
f 6/4/2 8/29/2 7/5/2
f 10/7/2 12/30/2 11/8/2
f 14/10/2 16/31/2 15/11/2
f 18/13/2 20/32/2 19/14/2
f 22/16/2 24/33/2 23/17/2
f 26/19/2 28/34/2 27/20/2
f 30/22/3 32/35/3 31/23/3
f 34/25/3 36/36/3 35/26/3
f 50/37/4 39/38/4 45/39/4
f 40/40/5 43/41/5 39/38/5
f 47/42/2 42/43/2 41/44/2
f 42/43/3 37/45/3 41/44/3
f 47/46/6 37/47/6 45/48/6
f 46/49/7 42/43/7 48/50/7
f 40/40/8 48/50/8 44/51/8
f 43/52/6 45/48/6 39/53/6
f 44/51/2 47/42/2 43/41/2
f 37/45/4 50/37/4 45/39/4
f 42/43/2 49/54/2 48/50/2
f 49/54/2 44/51/2 48/50/2
f 50/37/4 38/55/4 46/49/4
f 40/40/4 50/37/4 46/49/4
f 50/37/4 40/40/4 39/38/4
f 40/40/5 44/51/5 43/41/5
f 47/42/2 49/54/2 42/43/2
f 42/43/3 38/55/3 37/45/3
f 47/46/6 41/56/6 37/47/6
f 46/49/7 38/55/7 42/43/7
f 40/40/8 46/49/8 48/50/8
f 43/52/6 47/46/6 45/48/6
f 44/51/2 49/54/2 47/42/2
f 37/45/4 38/55/4 50/37/4
