v  -307.9058 631.3394 -314.6598
v  -197.9496 690.6621 -196.5201
v  -63.3907 659.6060 -244.1375
v  -112.6952 618.4045 -427.3649
v  -420.6106 649.3286 -119.4493
v  -236.5844 711.0405 -70.9437
v  -420.6106 669.8879 105.9605
v  -236.5844 726.3057 55.8428
v  -307.9058 669.8879 301.1711
v  -145.1324 681.3627 165.6432
v  -0.0000 564.9160 391.3127
v  -0.0000 652.9047 248.7567
v  -338.5007 515.1180 -358.8354
v  -132.5085 491.0752 -501.9982
v  -489.1439 515.1180 -139.9714
v  -489.1439 515.1180 125.0506
v  -132.5087 491.0752 457.8381
v  0.0000 484.5458 458.1176
v  0.0000 484.6967 457.9290
v  -147.1267 371.7034 -561.5613
v  -413.0344 414.9734 -414.4390
v  -560.1566 414.9734 -159.6156
v  -560.1566 414.9734 134.6293
v  -440.4670 414.9734 371.5522
v  -356.6329 515.1180 354.5665
v  -147.1269 371.7034 516.5876
v  -337.1006 87.6092 -357.1562
v  -402.7159 238.6735 -404.5032
v  -141.6078 238.6735 -546.0972
v  -123.4048 87.6093 -480.5337
v  -460.4779 87.6093 -143.4606
v  -544.3099 238.6735 -159.2551
v  -460.4781 87.6093 103.2941
v  -544.3099 238.6735 123.9331
v  -64.1402 163.1414 494.4950
v  64.1402 163.1414 494.4950
v  141.6080 238.6735 522.3455
v  -141.6080 238.6735 522.3455
v  -0.0065 18.5800 -10.0027
v  -225.0674 1.7456 -244.8338
v  -82.3967 1.7456 -327.2048
v  -265.0553 1.7456 -99.3537
v  -307.4384 1.7456 62.5787
v  -225.0675 1.7456 205.2494
v  -82.3968 1.7456 287.6205
v  0.0022 18.5803 -10.0349
v  82.3968 1.7456 287.6205
v  82.3967 1.7456 -327.2048
v  -337.1009 87.6093 316.9899
v  -165.4866 87.6093 441.6478
v  -246.0701 163.1414 468.7557
v  -409.2869 238.6735 365.0598
v  147.1269 365.1765 516.5876
v  -236.1167 238.6735 491.6769
v  -130.7689 680.0417 -43.4353
v  -102.8281 698.0928 -106.9419
v  -121.6457 690.0972 39.7016
v  -13.0952 677.5610 98.6931
v  165.4866 87.6093 441.6478
v  293.8623 590.4038 -314.6598
v  112.7094 633.7059 -427.3649
v  63.3907 684.1351 -244.1375
v  159.9031 684.1351 -169.9301
v  381.9084 608.1740 -119.4493
v  236.5844 669.0507 -60.4458
v  420.2195 597.7360 105.9605
v  226.4861 684.1351 67.8256
v  293.8624 590.4038 301.1711
v  145.1324 665.6230 180.9193
v  337.6825 463.8796 -369.4872
v  132.5085 484.5482 -483.8455
v  457.8661 463.8796 -134.9002
v  470.1936 463.8797 125.0506
v  132.5087 484.5482 457.8381
v  372.4358 365.1765 -419.2943
v  143.0905 365.1764 -550.9979
v  482.9355 357.1461 -166.0790
v  525.1363 365.1765 134.6293
v  337.6825 463.8796 354.5665
v  405.4467 365.1765 371.5522
v  352.5356 87.6092 -357.9158
v  153.2612 87.6093 -471.6006
v  171.7634 238.6735 -555.6805
v  415.1753 238.6735 -415.9363
v  422.4152 79.5789 -148.0885
v  496.7405 230.6432 -189.8485
v  476.7878 87.6093 103.2941
v  528.4500 238.6735 123.9331
v  215.3879 1.7456 -223.8109
v  307.4383 1.7456 -102.1633
v  307.4384 1.7456 62.5787
v  197.0461 1.7456 185.9652
v  353.4105 87.6093 316.9899
v  393.4270 238.6735 365.0598
v  246.0701 163.1414 468.7557
v  236.1167 238.6735 491.6769
v  -32.6800 684.0748 -142.1947
v  33.7139 698.0928 -142.1947
v  101.8730 698.0928 -105.0112
v  124.4148 683.0083 -28.4863
v  102.3455 698.0927 34.4920
v  -255.3099 529.6932 360.3070
v  0.0000 395.4801 458.3984
v  241.6575 515.8340 360.3070
v  114.8134 125.3753 442.2312
v  -114.8134 125.3753 442.2312
v  -241.0934 200.9075 454.3761
v  241.0934 200.9075 454.3761
v  -317.5137 250.0407 396.7233
v  319.7417 250.0157 396.7242
v  52.9279 910.4666 -106.9939
v  45.8796 909.8394 -61.5306
v  79.5529 897.5833 -61.5854
v  77.8140 901.4088 -106.9939
v  -66.1925 756.7775 -81.3459
v  -21.3582 756.7775 -103.8773
v  -83.3037 756.7774 -30.9538
v  -61.2806 756.7774 18.9936
v  -0.1408 749.9952 55.8025
v  55.8270 756.7774 19.6028
v  79.0469 756.7774 -31.2020
v  64.6396 756.7775 -80.1120
v  21.0766 756.7775 -103.8773
v  -28.5685 851.8021 -70.2069
v  4.0845 839.9175 -87.6698
v  -41.0306 856.3380 -31.1509
v  -24.9911 850.5001 7.5605
v  19.5014 834.1949 28.0812
v  60.2987 819.4572 8.0327
v  77.2098 813.3020 -31.3432
v  66.7169 817.1211 -69.2506
v  34.9899 828.6688 -87.6698
v  26.6347 920.0365 -92.9323
v  16.5997 921.6290 -61.4830
v  29.5152 918.9880 -30.3112
v  65.3421 905.8585 -15.3469
v  98.1935 893.9912 -29.9310
v  111.8109 881.1901 -57.7355
v  103.3617 892.1101 -92.1622

vn -0.0218 0.9518 -0.3060
vn -0.2547 0.9387 -0.2324
vn -0.3046 0.9476 -0.0964
vn -0.0840 0.9762 0.2001
vn 0.1175 0.9113 0.3947
vn -0.4451 0.4653 -0.7651
vn -0.7544 0.4273 -0.4983
vn -0.9033 0.4286 -0.0180
vn 0.0321 0.6764 0.7359
vn -0.0074 0.6388 0.7693
vn -0.3810 0.5461 -0.7460
vn -0.6562 0.6318 -0.4125
vn -0.8157 0.5784 -0.0000
vn -0.7060 0.5965 0.3817
vn -0.3414 0.4397 0.8307
vn 0.0198 0.4395 0.8980
vn -0.4425 -0.4191 -0.7929
vn -0.7643 -0.4703 -0.4413
vn -0.8744 -0.4852 -0.0000
vn -0.0000 -0.3460 0.9383
vn 0.0266 -0.9986 0.0461
vn 0.0580 -0.9982 0.0159
vn 0.0583 -0.9982 0.0152
vn 0.0481 -0.9985 -0.0278
vn 0.0281 -0.9984 -0.0487
vn -0.0000 -0.9984 -0.0565
vn 0.0000 -0.9986 0.0530
vn -0.7912 0.4067 0.4568
vn -0.5464 -0.5715 0.6122
vn -0.2443 -0.8725 -0.4232
vn -0.4060 -0.8950 -0.1846
vn -0.4412 -0.8962 -0.0458
vn -0.4241 -0.8719 0.2448
vn -0.2544 -0.8867 0.3862
vn 0.0005 0.0443 0.9990
vn -0.4843 -0.0962 -0.8696
vn -0.8633 -0.0786 -0.4985
vn -0.9960 -0.0895 -0.0000
vn -0.8739 -0.1393 0.4657
vn -0.4016 0.0981 0.9106
vn -0.7582 -0.4895 0.4308
vn 0.1027 0.9944 0.0239
vn 0.2949 0.9471 -0.1270
vn 0.1929 0.9757 0.1037
vn 0.0000 -0.8735 0.4869
vn 0.3031 0.9232 -0.2364
vn 0.3578 0.9118 -0.2015
vn 0.3958 0.9173 -0.0436
vn 0.3011 0.9118 0.2793
vn 0.0986 0.8694 0.4841
vn 0.5105 0.4206 -0.7500
vn 0.7936 0.4556 -0.4033
vn 0.9080 0.4100 -0.0859
vn 0.1774 0.6291 0.7568
vn 0.0012 0.8280 0.5607
vn 0.4463 0.4932 -0.7467
vn 0.8329 0.3952 -0.3874
vn 0.9242 0.3699 -0.0952
vn 0.7507 0.5212 0.4059
vn 0.4396 0.4383 0.7840
vn 0.0019 0.4418 0.8971
vn 0.4369 -0.4762 -0.7631
vn 0.8257 -0.4749 -0.3044
vn 0.9122 -0.3893 -0.1279
vn -0.0343 -0.9984 0.0441
vn -0.0446 -0.9984 0.0337
vn -0.0547 -0.9985 0.0000
vn -0.0451 -0.9982 -0.0404
vn -0.0402 -0.9982 -0.0453
vn 0.7747 0.4125 0.4793
vn 0.5591 -0.5135 0.6510
vn 0.2426 -0.8962 -0.3714
vn 0.4136 -0.8826 -0.2234
vn 0.4977 -0.8660 -0.0483
vn 0.3494 -0.9051 0.2423
vn 0.2512 -0.9078 0.3359
vn 0.0101 -0.8666 -0.4989
vn 0.4928 0.1436 -0.8582
vn 0.9058 0.2311 -0.3552
vn 0.9891 0.0834 -0.1212
vn 0.8808 -0.0622 0.4693
vn 0.4416 0.1360 0.8868
vn 0.8138 -0.3521 0.4623
vn -0.1925 0.9645 -0.1808
vn 0.1926 0.9797 0.0561
vn 0.1170 0.9838 -0.1355
vn 0.0011 0.9764 0.2162
vn 0.0452 0.9864 0.1581
vn -0.1091 0.9643 -0.2411
vn 0.0258 0.4283 -0.9033
vn 0.0566 0.4673 -0.8823
vn -0.0010 -0.4438 -0.8961
vn 0.0012 -0.0414 -0.9991
vn -0.1504 0.8397 0.5218
vn -0.5963 0.1116 0.7950
vn -0.1035 0.3533 0.9297
vn 0.3674 0.0029 0.9301
vn 0.0201 0.9067 0.4213
vn -0.3673 0.0029 0.9301
vn 0.6321 0.1589 0.7584
vn 0.3920 0.6529 0.6481
vn 0.2973 0.4568 0.8384
vn 0.0000 -0.0154 0.9999
vn 0.2055 0.0273 0.9783
vn -0.2055 0.0273 0.9783
vn -0.7059 -0.4439 0.5520
vn 0.3825 -0.0836 0.9201
vn -0.2296 -0.6685 0.7074
vn 0.2296 -0.6685 0.7074
vn 0.0000 -0.8105 0.5857
vn -0.2964 -0.5971 0.7453
vn 0.2964 -0.5971 0.7453
vn -0.3148 -0.0905 0.9448
vn 0.7059 -0.4180 0.5718
vn 0.4062 0.3541 0.8424
vn -0.3562 0.4051 0.8420
vn 0.1164 0.9645 -0.2371
vn 0.0826 0.9891 -0.1221
vn 0.3413 0.9376 0.0659
vn -0.3364 0.5084 -0.7927
vn -0.7975 0.5591 -0.2268
vn -0.7877 0.6002 0.1390
vn -0.3665 0.5397 0.7579
vn 0.3956 0.4533 0.7988
vn 0.7836 0.5749 0.2357
vn 0.8216 0.5420 -0.1768
vn 0.3967 0.5602 -0.7272
vn -0.0647 0.5023 -0.8623
vn -0.4067 0.2776 -0.8704
vn -0.8739 0.3761 -0.3080
vn -0.8457 0.3671 0.3873
vn -0.3987 0.3149 0.8614
vn 0.5061 0.1444 0.8503
vn 0.9139 0.0196 0.4054
vn 0.9613 0.0232 -0.2747
vn 0.4989 0.1155 -0.8589
vn 0.0302 0.1972 -0.9799
vn -0.4510 0.0685 -0.8899
vn -0.7842 0.5445 -0.2976
vn -0.6257 0.7000 0.3442
vn -0.1464 0.5727 0.8066
vn 0.4759 0.2037 0.8556
vn 0.8594 -0.2315 0.4559
vn 0.8021 -0.5082 -0.3136
vn 0.3357 -0.4214 -0.8424
vn -0.0776 -0.2131 -0.9740
vn 0.3723 0.9250 -0.0759
vn 0.3788 0.9178 -0.1189
vn 0.3554 0.9321 -0.0694
vn 0.3736 0.9248 0.0714
vn 0.3696 0.9210 0.1229

vt 0.0833 0.6667 0.0000
vt 0.0833 0.8333 0.0000
vt 0.0000 0.8333 0.0000
vt 0.0000 0.6667 0.0000
vt 0.1667 0.6667 0.0000
vt 0.1667 0.8333 0.0000
vt 0.2500 0.6667 0.0000
vt 0.2500 0.8333 0.0000
vt 0.3333 0.6667 0.0000
vt 0.3333 0.8333 0.0000
vt 0.4588 0.6667 0.0000
vt 0.4583 0.8333 0.0000
vt 0.0833 0.5000 0.0000
vt 0.0000 0.5000 0.0000
vt 0.1667 0.5000 0.0000
vt 0.2500 0.5000 0.0000
vt 0.4167 0.5000 0.0000
vt 0.4583 0.5000 0.0000
vt 0.4583 0.5002 0.0000
vt 0.0000 0.4167 0.0000
vt 0.0833 0.4167 0.0000
vt 0.1667 0.4167 0.0000
vt 0.2500 0.4167 0.0000
vt 0.3333 0.4167 0.0000
vt 0.3333 0.5000 0.0000
vt 0.4167 0.4167 0.0000
vt 0.0833 0.1667 0.0000
vt 0.0833 0.3333 0.0000
vt 0.0000 0.3333 0.0000
vt 0.0000 0.1667 0.0000
vt 0.1667 0.1667 0.0000
vt 0.1667 0.3333 0.0000
vt 0.2500 0.1667 0.0000
vt 0.2500 0.3333 0.0000
vt 0.4392 0.2500 0.0000
vt 0.4167 0.3333 0.0000
vt 0.0000 0.0000 0.0000
vt 0.0417 0.0833 0.0000
vt 0.0000 0.0833 0.0000
vt 0.0833 0.0000 0.0000
vt 0.1250 0.0833 0.0000
vt 0.0833 0.0833 0.0000
vt 0.1667 0.0000 0.0000
vt 0.2083 0.0833 0.0000
vt 0.1667 0.0833 0.0000
vt 0.2500 0.0000 0.0000
vt 0.2917 0.0833 0.0000
vt 0.2500 0.0833 0.0000
vt 0.3333 0.0000 0.0000
vt 0.3750 0.0833 0.0000
vt 0.3333 0.0833 0.0000
vt 0.4167 0.0000 0.0000
vt 0.4167 0.0833 0.0000
vt 0.9583 0.0833 0.0000
vt 0.9167 0.0000 0.0000
vt 0.2917 0.5833 0.0000
vt 0.3333 0.1667 0.0000
vt 0.4167 0.1667 0.0000
vt 0.3914 0.2500 0.0000
vt 0.3603 0.2500 0.0000
vt 0.3333 0.3333 0.0000
vt 0.3750 0.3333 0.0000
vt 0.2203 0.3333 0.0000
vt 0.2917 0.3333 0.0000
vt 0.1145 0.9376 0.0000
vt 0.0833 0.9376 0.0000
vt 0.1979 0.9376 0.0000
vt 0.1667 0.9376 0.0000
vt 0.2809 0.9382 0.0000
vt 0.2500 0.9376 0.0000
vt 1.0000 0.1667 0.0000
vt 0.0000 0.9376 0.0000
vt 0.3742 0.9376 0.0000
vt 1.0000 0.8333 0.0000
vt 0.3988 0.9434 0.0000
vt 0.3684 0.8472 0.0000
vt 1.0000 0.6667 0.0000
vt 1.0000 0.5000 0.0000
vt 1.0000 0.4167 0.0000
vt 1.0000 0.3333 0.0000
vt 0.3611 0.5556 0.0000
vt 0.4306 0.4444 0.0000
vt 0.3472 0.5278 0.0000
vt 0.9583 0.6667 0.0000
vt 0.5625 0.8333 0.0000
vt 0.1875 0.2500 0.0000
vt 0.3125 0.7500 0.0000
vt 0.7500 0.0000 0.0000
vt 0.5000 0.0000 0.0000
vt 0.4257 0.0495 0.0000
vt 0.3592 0.4167 0.0000
vt 0.9583 0.5000 0.0000
vt 0.4375 0.4167 0.0000
vt 0.4583 0.3333 0.0000
vt 0.1667 1.0000 0.0000
vt 0.0312 0.9376 0.0000
vt 0.3239 1.1875 0.0000
vt 0.0564 1.1593 0.0000
vt 0.1227 0.9122 0.0000
vt 0.3742 1.0000 0.0000
vt 0.1863 1.3245 0.0000
vt -0.0014 1.3742 0.0000
vt -0.1897 1.3226 0.0000
vt -0.2548 0.7487 0.0000
vt -0.0013 0.6258 0.0000
vt 0.1863 0.6755 0.0000
vt 0.3239 0.8125 0.0000

f 1/1/1 2/2/1 3/3/1 4/4/1 
f 5/5/2 6/6/2 2/2/2 1/1/2 
f 7/7/3 8/8/3 6/6/3 5/5/3 
f 9/9/4 10/10/4 8/8/4 7/7/4 
f 10/10/5 9/9/5 11/11/5 12/12/5 
f 13/13/6 1/1/6 4/4/6 14/14/6 
f 15/15/7 5/5/7 1/1/7 13/13/7 
f 16/16/8 7/7/8 5/5/8 15/15/8 
f 9/9/9 17/17/9 18/18/9 19/19/9 
f 9/9/10 19/19/10 11/11/10 
f 14/14/11 20/20/11 21/21/11 13/13/11 
f 13/13/12 21/21/12 22/22/12 15/15/12 
f 15/15/13 22/22/13 23/23/13 16/16/13 
f 16/16/14 23/23/14 24/24/14 25/25/14 
f 25/25/15 24/24/15 26/26/15 17/17/15 
f 17/17/16 26/26/16 18/18/16 
f 27/27/17 28/28/17 29/29/17 30/30/17 
f 31/31/18 32/32/18 28/28/18 27/27/18 
f 33/33/19 34/34/19 32/32/19 31/31/19 
f 35/35/20 36/35/20 37/36/20 38/36/20 
f 39/37/21 40/38/21 41/39/21 
f 39/40/22 42/41/22 40/42/22 
f 39/43/23 43/44/23 42/45/23 
f 39/46/24 44/47/24 43/48/24 
f 39/49/25 45/50/25 44/51/25 
f 39/52/26 46/52/26 47/53/26 45/53/26 
f 41/54/27 48/54/27 46/55/27 39/55/27 
f 25/25/28 9/56/28 7/7/28 16/16/28 
f 49/57/29 50/58/29 51/59/29 52/60/29 
f 30/30/30 41/39/30 40/38/30 27/27/30 
f 31/31/31 27/27/31 40/42/31 42/41/31 
f 33/33/32 31/31/32 42/45/32 43/44/32 
f 49/57/33 33/33/33 43/48/33 44/47/33 
f 50/58/34 49/57/34 44/51/34 45/50/34 
f 37/36/35 53/26/35 26/26/35 38/36/35 
f 20/20/36 29/29/36 28/28/36 21/21/36 
f 21/21/37 28/28/37 32/32/37 22/22/37 
f 22/22/38 32/32/38 34/34/38 23/23/38 
f 23/23/39 34/34/39 52/61/39 24/24/39 
f 24/24/40 54/62/40 38/36/40 26/26/40 
f 34/34/41 33/63/41 49/64/41 52/61/41 
f 6/6/42 55/65/42 56/66/42 2/2/42 
f 8/8/43 57/67/43 55/68/43 6/6/43 
f 10/10/44 58/69/44 57/70/44 8/8/44 
f 50/58/45 45/53/45 47/53/45 59/58/45 
f 60/1/46 61/4/46 62/3/46 63/2/46 
f 64/5/47 60/1/47 63/2/47 65/6/47 
f 66/7/48 64/5/48 65/6/48 67/8/48 
f 68/9/49 66/7/49 67/8/49 69/10/49 
f 69/10/50 12/12/50 11/11/50 68/9/50 
f 70/13/51 71/14/51 61/4/51 60/1/51 
f 72/15/52 70/13/52 60/1/52 64/5/52 
f 73/16/53 72/15/53 64/5/53 66/7/53 
f 68/9/54 11/11/54 19/19/54 18/18/54 
f 68/9/55 18/18/55 74/17/55 
f 71/14/56 70/13/56 75/21/56 76/20/56 
f 70/13/57 72/15/57 77/22/57 75/21/57 
f 72/15/58 73/16/58 78/23/58 77/22/58 
f 73/16/59 79/25/59 80/24/59 78/23/59 
f 79/25/60 74/17/60 53/26/60 80/24/60 
f 74/17/61 18/18/61 53/26/61 
f 81/27/62 82/30/62 83/29/62 84/28/62 
f 85/31/63 81/27/63 84/28/63 86/32/63 
f 87/33/64 85/31/64 86/32/64 88/34/64 
f 46/37/65 48/39/65 89/38/65 
f 46/40/66 89/42/66 90/41/66 
f 46/43/67 90/45/67 91/44/67 
f 46/46/68 91/48/68 92/47/68 
f 46/49/69 92/51/69 47/50/69 
f 79/25/70 73/16/70 66/7/70 68/56/70 
f 93/57/71 94/60/71 95/59/71 59/58/71 
f 82/30/72 81/27/72 89/38/72 48/39/72 
f 85/31/73 90/41/73 89/42/73 81/27/73 
f 87/33/74 91/44/74 90/45/74 85/31/74 
f 93/57/75 92/47/75 91/48/75 87/33/75 
f 59/58/76 47/50/76 92/51/76 93/57/76 
f 48/54/77 41/54/77 30/71/77 82/71/77 
f 76/20/78 75/21/78 84/28/78 83/29/78 
f 75/21/79 77/22/79 86/32/79 84/28/79 
f 77/22/80 78/23/80 88/34/80 86/32/80 
f 78/23/81 80/24/81 94/61/81 88/34/81 
f 80/24/82 53/26/82 37/36/82 96/62/82 
f 88/34/83 94/61/83 93/64/83 87/63/83 
f 3/3/84 97/72/84 98/73/84 62/74/84 
f 63/2/85 99/66/85 100/65/85 65/6/85 
f 65/6/86 100/68/86 101/67/86 67/8/86 
f 67/8/87 101/70/87 58/69/87 69/10/87 
f 58/75/88 10/76/88 12/12/88 69/76/88 
f 4/77/89 3/74/89 62/74/89 61/77/89 
f 14/78/90 4/77/90 61/77/90 71/78/90 
f 20/79/91 14/78/91 71/78/91 76/79/91 
f 29/80/92 83/80/92 82/71/92 30/71/92 
f 20/79/93 76/79/93 83/80/93 29/80/93 
f 25/25/94 17/17/94 102/81/94 
f 17/17/95 9/9/95 102/81/95 
f 9/56/96 25/25/96 102/81/96 
f 18/18/97 26/26/97 103/82/97 
f 26/26/98 53/26/98 103/82/98 
f 53/26/99 18/18/99 103/82/99 
f 68/9/100 74/17/100 104/83/100 
f 74/17/101 79/25/101 104/83/101 
f 79/25/102 68/56/102 104/83/102 
f 59/84/103 105/85/103 106/61/103 50/34/103 
f 50/34/104 106/61/104 107/86/104 51/30/104 
f 59/84/105 95/18/105 108/87/105 105/85/105 
f 54/88/106 24/89/106 109/90/106 107/50/106 
f 80/23/107 110/91/107 94/92/107 
f 54/62/108 107/86/108 38/17/108 
f 37/36/109 108/93/109 96/94/109 
f 36/68/110 35/36/110 106/61/110 105/85/110 
f 106/61/111 35/36/111 38/17/111 107/86/111 
f 37/95/112 36/68/112 105/85/112 108/87/112 
f 24/89/113 52/80/113 109/90/113 
f 110/91/114 80/23/114 96/94/114 108/93/114 
f 108/93/115 95/18/115 94/92/115 110/91/115 
f 52/80/116 51/30/116 107/50/116 109/90/116 
f 2/2/117 56/96/117 97/72/117 3/3/117 
f 62/74/118 98/73/118 99/96/118 63/2/118 
f 111/97/119 112/98/119 113/99/119 114/100/119 
f 97/72/120 56/96/120 115/101/120 116/97/120 
f 56/66/121 55/65/121 117/102/121 115/101/121 
f 55/68/122 57/67/122 118/103/122 117/102/122 
f 57/70/123 58/69/123 119/104/123 118/103/123 
f 58/69/124 101/70/124 120/105/124 119/104/124 
f 101/67/125 100/68/125 121/106/125 120/105/125 
f 100/65/126 99/66/126 122/107/126 121/106/126 
f 99/96/127 98/73/127 123/100/127 122/107/127 
f 98/73/128 97/72/128 116/97/128 123/100/128 
f 116/97/129 115/101/129 124/101/129 125/97/129 
f 115/101/130 117/102/130 126/102/130 124/101/130 
f 117/102/131 118/103/131 127/103/131 126/102/131 
f 118/103/132 119/104/132 128/104/132 127/103/132 
f 119/104/133 120/105/133 129/105/133 128/104/133 
f 120/105/134 121/106/134 130/106/134 129/105/134 
f 121/106/135 122/107/135 131/107/135 130/106/135 
f 122/107/136 123/100/136 132/100/136 131/107/136 
f 123/100/137 116/97/137 125/97/137 132/100/137 
f 125/97/138 124/101/138 133/101/138 111/97/138 
f 124/101/139 126/102/139 134/102/139 133/101/139 
f 126/102/140 127/103/140 135/103/140 134/102/140 
f 127/103/141 128/104/141 136/104/141 135/103/141 
f 128/104/142 129/105/142 137/105/142 136/104/142 
f 129/105/143 130/106/143 138/106/143 137/105/143 
f 130/106/144 131/107/144 139/107/144 138/106/144 
f 131/107/145 132/100/145 114/100/145 139/107/145 
f 132/100/146 125/97/146 111/97/146 114/100/146 
f 134/102/147 135/103/147 112/98/147 
f 137/105/148 138/106/148 113/99/148 136/104/148 
f 136/104/149 113/99/149 112/98/149 135/103/149 
f 133/101/150 134/102/150 112/98/150 111/97/150 
f 113/99/151 138/106/151 139/107/151 114/100/151